<svg width="26" height="26" viewBox="0 0 26 26" fill="none" xmlns="http://www.w3.org/2000/svg">
<path d="M4.33333 24.9167H21.6667C21.954 24.9167 22.2295 24.8025 22.4327 24.5994C22.6359 24.3962 22.75 24.1207 22.75 23.8333V6.50001C22.7499 6.21272 22.6358 5.93721 22.4326 5.73409L18.0993 1.40076C17.8961 1.19758 17.6206 1.0834 17.3333 1.08334H4.33333C4.04602 1.08334 3.77047 1.19748 3.5673 1.40064C3.36414 1.60381 3.25 1.87936 3.25 2.16668V23.8333C3.25 24.1207 3.36414 24.3962 3.5673 24.5994C3.77047 24.8025 4.04602 24.9167 4.33333 24.9167ZM5.41667 3.25001H16.8848L20.5833 6.94851V22.75H5.41667V3.25001ZM16.4742 11.0576L14.5318 13L16.4742 14.9424C16.5777 15.0424 16.6603 15.1619 16.717 15.2941C16.7738 15.4262 16.8037 15.5684 16.8049 15.7122C16.8062 15.8561 16.7788 15.9987 16.7243 16.1319C16.6698 16.265 16.5894 16.386 16.4877 16.4877C16.386 16.5894 16.265 16.6698 16.1319 16.7243C15.9987 16.7788 15.8561 16.8062 15.7122 16.8049C15.5684 16.8037 15.4262 16.7738 15.2941 16.717C15.1619 16.6603 15.0424 16.5777 14.9424 16.4743L13 14.5318L11.0576 16.4743C10.8533 16.6716 10.5796 16.7808 10.2956 16.7783C10.0115 16.7759 9.73981 16.6619 9.53895 16.4611C9.33809 16.2602 9.22416 15.9885 9.22169 15.7044C9.21922 15.4204 9.32841 15.1467 9.52575 14.9424L11.4682 13L9.52575 11.0576C9.32841 10.8533 9.21922 10.5796 9.22169 10.2956C9.22416 10.0115 9.33809 9.73982 9.53895 9.53896C9.73981 9.3381 10.0115 9.22417 10.2956 9.2217C10.5796 9.21923 10.8533 9.32842 11.0576 9.52576L13 11.4682L14.9424 9.52576C15.1467 9.32842 15.4204 9.21923 15.7044 9.2217C15.9885 9.22417 16.2602 9.3381 16.4611 9.53896C16.6619 9.73982 16.7758 10.0115 16.7783 10.2956C16.7808 10.5796 16.6716 10.8533 16.4742 11.0576Z" fill="white"/>
</svg>
