<svg width="12" height="12" viewBox="0 0 12 12" fill="none" xmlns="http://www.w3.org/2000/svg">
<path d="M4.5624 10.55L0.349902 6.35001C0.299902 6.30001 0.264569 6.24585 0.243902 6.18751C0.222902 6.12918 0.212402 6.06668 0.212402 6.00001C0.212402 5.93335 0.222902 5.87085 0.243902 5.81251C0.264569 5.75418 0.299902 5.70001 0.349902 5.65001L4.5624 1.43751C4.67907 1.32085 4.8249 1.26251 4.9999 1.26251C5.1749 1.26251 5.3249 1.32501 5.4499 1.45001C5.5749 1.57501 5.6374 1.72085 5.6374 1.88751C5.6374 2.05418 5.5749 2.20001 5.4499 2.32501L1.7749 6.00001L5.4499 9.67501C5.56657 9.79168 5.6249 9.93535 5.6249 10.106C5.6249 10.277 5.5624 10.425 5.4374 10.55C5.3124 10.675 5.16657 10.7375 4.9999 10.7375C4.83324 10.7375 4.6874 10.675 4.5624 10.55Z" fill="#053354"/>
</svg>
