<svg width="7" height="12" viewBox="0 0 7 12" fill="none" xmlns="http://www.w3.org/2000/svg">
<path d="M5.3228 11.3083L0.408219 6.40835C0.349886 6.35001 0.308664 6.28682 0.284553 6.21877C0.260053 6.15071 0.247803 6.07779 0.247803 6.00002C0.247803 5.92224 0.260053 5.84932 0.284553 5.78127C0.308664 5.71321 0.349886 5.65001 0.408219 5.59168L5.3228 0.677098C5.45891 0.540986 5.62905 0.472931 5.83322 0.472931C6.03739 0.472931 6.21239 0.545848 6.35822 0.691681C6.50405 0.837514 6.57697 1.00765 6.57697 1.2021C6.57697 1.39654 6.50405 1.56668 6.35822 1.71251L2.07072 6.00002L6.35822 10.2875C6.49433 10.4236 6.56239 10.5912 6.56239 10.7903C6.56239 10.9898 6.48947 11.1625 6.34364 11.3083C6.1978 11.4542 6.02766 11.5271 5.83322 11.5271C5.63877 11.5271 5.46864 11.4542 5.3228 11.3083Z" fill="#053354"/>
</svg>
