<svg width="12" height="12" viewBox="0 0 12 12" fill="none" xmlns="http://www.w3.org/2000/svg">
<path d="M7.4376 1.44999L11.6501 5.64999C11.7001 5.69999 11.7354 5.75415 11.7561 5.81249C11.7771 5.87082 11.7876 5.93332 11.7876 5.99999C11.7876 6.06665 11.7771 6.12915 11.7561 6.18749C11.7354 6.24582 11.7001 6.29999 11.6501 6.34999L7.4376 10.5625C7.32093 10.6792 7.1751 10.7375 7.0001 10.7375C6.8251 10.7375 6.6751 10.675 6.5501 10.55C6.4251 10.425 6.3626 10.2792 6.3626 10.1125C6.3626 9.94582 6.4251 9.79999 6.5501 9.67499L10.2251 5.99999L6.5501 2.32499C6.43343 2.20832 6.3751 2.06465 6.3751 1.89399C6.3751 1.72299 6.4376 1.57499 6.5626 1.44999C6.6876 1.32499 6.83343 1.26249 7.0001 1.26249C7.16676 1.26249 7.3126 1.32499 7.4376 1.44999Z" fill="#053354"/>
</svg>
