<svg width="7" height="12" viewBox="0 0 7 12" fill="none" xmlns="http://www.w3.org/2000/svg">
<path d="M1.6772 0.69165L6.59178 5.59165C6.65011 5.64999 6.69134 5.71318 6.71545 5.78123C6.73995 5.84929 6.7522 5.92221 6.7522 5.99998C6.7522 6.07776 6.73995 6.15068 6.71545 6.21873C6.69134 6.28679 6.65011 6.34999 6.59178 6.40832L1.6772 11.3229C1.54109 11.459 1.37095 11.5271 1.16678 11.5271C0.962614 11.5271 0.787614 11.4542 0.641781 11.3083C0.495948 11.1625 0.423031 10.9923 0.423031 10.7979C0.423031 10.6035 0.495948 10.4333 0.641781 10.2875L4.92928 5.99998L0.641781 1.71248C0.50567 1.57637 0.437614 1.40876 0.437614 1.20965C0.437614 1.01015 0.510531 0.837483 0.656364 0.69165C0.802197 0.545816 0.972336 0.4729 1.16678 0.4729C1.36123 0.4729 1.53136 0.545816 1.6772 0.69165Z" fill="#053354"/>
</svg>
